<svg width="28" height="28" viewBox="0 0 28 28" fill="none" xmlns="http://www.w3.org/2000/svg">
<g clip-path="url(#clip0_636_1268)">
<path fill-rule="evenodd" clip-rule="evenodd" d="M14.0006 13.8086C16.3111 13.8086 18.1842 11.9376 18.1842 9.62957C18.1842 7.32157 16.3111 5.45056 14.0006 5.45056C11.69 5.45056 9.81691 7.32157 9.81691 9.62957C9.81691 11.9376 11.69 13.8086 14.0006 13.8086ZM14.0006 16.3424C17.7121 16.3424 20.7209 13.337 20.7209 9.62957C20.7209 5.92218 17.7121 2.91675 14.0006 2.91675C10.2891 2.91675 7.28027 5.92218 7.28027 9.62957C7.28027 13.337 10.2891 16.3424 14.0006 16.3424Z" fill="#222222"/>
<path fill-rule="evenodd" clip-rule="evenodd" d="M9.61428 14.7858C11.01 14.3146 12.4996 14.074 13.9997 14.074C15.4998 14.074 16.9893 14.3146 18.3851 14.7858C19.7807 15.257 21.0631 15.9523 22.1543 16.8417C23.2458 17.7314 24.1287 18.8016 24.7374 19.9995C25.3469 21.1989 25.6663 22.4968 25.6663 23.8164C25.6663 24.5161 25.0985 25.0833 24.398 25.0833C23.6975 25.0833 23.1297 24.5161 23.1297 23.8164C23.1297 22.91 22.9112 22.0037 22.4755 21.1464C22.0392 20.2878 21.3902 19.4893 20.5506 18.8049C19.7106 18.1202 18.7004 17.5669 17.5728 17.1863C16.4454 16.8056 15.2307 16.6078 13.9997 16.6078C12.7687 16.6078 11.5539 16.8056 10.4265 17.1863C9.29895 17.5669 8.28876 18.1202 7.44879 18.8049C6.60916 19.4893 5.96015 20.2878 5.5238 21.1464C5.08817 22.0037 4.86964 22.91 4.86964 23.8164C4.86964 24.5161 4.3018 25.0833 3.60133 25.0833C2.90085 25.0833 2.33301 24.5161 2.33301 23.8164C2.33301 22.4968 2.6524 21.1989 3.2619 19.9995C3.87069 18.8016 4.75355 17.7314 5.84507 16.8417C6.93625 15.9523 8.21868 15.257 9.61428 14.7858Z" fill="#222222"/>
</g>
<defs>
<clipPath id="clip0_636_1268">
<rect width="28" height="28" fill="white"/>
</clipPath>
</defs>
</svg>
