<svg width="28" height="28" viewBox="0 0 28 28" fill="none" xmlns="http://www.w3.org/2000/svg">
<g clip-path="url(#clip0_1324_5201)">
<path fill-rule="evenodd" clip-rule="evenodd" d="M19.311 5.04701H8.68905C6.67774 5.04701 5.04725 6.67749 5.04725 8.6888V19.3107C5.04725 21.322 6.67774 22.9525 8.68905 22.9525H19.311C21.3223 22.9525 22.9528 21.322 22.9528 19.3107V8.6888C22.9528 6.67749 21.3223 5.04701 19.311 5.04701ZM8.68905 2.61914C5.33686 2.61914 2.61938 5.33662 2.61938 8.6888V19.3107C2.61938 22.6629 5.33686 25.3804 8.68905 25.3804H19.311C22.6631 25.3804 25.3806 22.6629 25.3806 19.3107V8.6888C25.3806 5.33662 22.6631 2.61914 19.311 2.61914H8.68905Z" fill="#222222"/>
<path d="M3.5144 19.8272C3.5144 19.1568 4.0579 18.6133 4.72834 18.6133H23.2708C23.9412 18.6133 24.4847 19.1568 24.4847 19.8272C24.4847 20.4976 23.9412 21.0411 23.2708 21.0411H4.72834C4.0579 21.0411 3.5144 20.4976 3.5144 19.8272Z" fill="#222222"/>
<path d="M7.19092 14.7158C7.19092 15.3862 7.73441 15.9297 8.40485 15.9297H12.9694C13.6398 15.9297 14.1833 15.3862 14.1833 14.7158C14.1833 14.0453 13.6398 13.5018 12.9694 13.5018H8.40485C7.73441 13.5018 7.19092 14.0453 7.19092 14.7158Z" fill="#733EE3"/>
<path d="M7.19092 10.0068C7.19092 10.6772 7.73441 11.2207 8.40485 11.2207H17.1779C17.8484 11.2207 18.3919 10.6772 18.3919 10.0068C18.3919 9.33633 17.8484 8.79284 17.1779 8.79284H8.40485C7.73441 8.79284 7.19092 9.33633 7.19092 10.0068Z" fill="#733EE3"/>
</g>
<defs>
<clipPath id="clip0_1324_5201">
<rect width="28" height="28" fill="white"/>
</clipPath>
</defs>
</svg>
