<svg width="358" height="56" viewBox="0 0 358 56" fill="none" xmlns="http://www.w3.org/2000/svg">
<rect width="358" height="56" rx="4" fill="black"/>
<path d="M41.5808 34.7033C41.2218 35.5418 40.7967 36.3136 40.3043 37.0232C39.633 37.9906 39.0834 38.6602 38.6598 39.032C38.0032 39.6424 37.2997 39.955 36.5464 39.9728C36.0056 39.9728 35.3534 39.8172 34.5942 39.5017C33.8325 39.1876 33.1325 39.032 32.4925 39.032C31.8212 39.032 31.1013 39.1876 30.3312 39.5017C29.56 39.8172 28.9387 39.9816 28.4637 39.9979C27.7413 40.0291 27.0213 39.7076 26.3025 39.032C25.8438 38.6276 25.27 37.9343 24.5826 36.9521C23.8451 35.9033 23.2388 34.687 22.7637 33.3004C22.255 31.8026 22 30.3523 22 28.9482C22 27.3398 22.3438 25.9526 23.0325 24.7901C23.5738 23.8564 24.2939 23.1198 25.1951 22.5791C26.0963 22.0383 27.0701 21.7628 28.1187 21.7452C28.6925 21.7452 29.445 21.9246 30.38 22.2771C31.3125 22.6309 31.9112 22.8103 32.1737 22.8103C32.3699 22.8103 33.035 22.6005 34.1625 22.1823C35.2288 21.7945 36.1287 21.6339 36.8659 21.6972C38.8636 21.8601 40.3644 22.6561 41.3625 24.0901C39.5758 25.1843 38.6921 26.7169 38.7097 28.6829C38.7258 30.2142 39.2754 31.4886 40.3556 32.5004C40.8451 32.97 41.3918 33.333 42 33.5907C41.8681 33.9774 41.7289 34.3477 41.5808 34.7033ZM36.9993 16.4801C36.9993 17.6804 36.5654 18.8011 35.7007 19.8384C34.6572 21.0716 33.395 21.7841 32.0262 21.6717C32.0088 21.5277 31.9987 21.3761 31.9987 21.2169C31.9987 20.0646 32.4949 18.8315 33.3762 17.8232C33.8162 17.3127 34.3758 16.8882 35.0544 16.5496C35.7315 16.2161 36.372 16.0316 36.9744 16C36.9919 16.1605 36.9993 16.3209 36.9993 16.4801V16.4801Z" fill="white"/>
<path d="M120.114 34H118.554L122.953 21.9805H124.53L128.93 34H127.353L126.149 30.6133H121.318L120.114 34ZM121.774 29.3018H125.692L123.783 23.9229H123.684L121.774 29.3018ZM130.374 37.3867V24.9854H131.752V26.4131H131.918C132.225 25.9316 132.773 24.8691 134.524 24.8691C136.791 24.8691 138.359 26.6621 138.359 29.5176C138.359 32.3813 136.791 34.1909 134.541 34.1826C132.823 34.1909 132.225 33.1201 131.918 32.6221H131.802V37.3867H130.374ZM131.769 29.4844C131.777 31.5098 132.682 32.9043 134.342 32.9043C136.052 32.9043 136.932 31.4019 136.932 29.4844C136.932 27.6001 136.077 26.1475 134.342 26.1475C132.657 26.1475 131.777 27.4839 131.769 29.4844ZM140.219 37.3867V24.9854H141.597V26.4131H141.763C142.07 25.9316 142.618 24.8691 144.369 24.8691C146.635 24.8691 148.204 26.6621 148.204 29.5176C148.204 32.3813 146.635 34.1909 144.386 34.1826C142.667 34.1909 142.07 33.1201 141.763 32.6221H141.646V37.3867H140.219ZM141.613 29.4844C141.622 31.5098 142.526 32.9043 144.187 32.9043C145.896 32.9043 146.776 31.4019 146.776 29.4844C146.776 27.6001 145.921 26.1475 144.187 26.1475C142.501 26.1475 141.622 27.4839 141.613 29.4844ZM151.491 21.9805V34H150.063V21.9805H151.491ZM157.551 34.1826C154.944 34.1909 153.334 32.3315 153.334 29.5674C153.334 26.7949 154.969 24.8691 157.418 24.8691C159.311 24.8691 161.311 26.0312 161.303 29.3682V29.9658H154.762C154.836 31.875 155.949 32.9209 157.551 32.9209C158.63 32.9209 159.311 32.4478 159.643 31.8916H161.17C160.747 33.2612 159.41 34.1909 157.551 34.1826ZM154.77 28.7539H159.858C159.85 27.2515 158.904 26.1309 157.418 26.1309C155.857 26.1309 154.87 27.3594 154.77 28.7539ZM176.128 32.4229V33.5186H162.614V32.4229H168.69V29.6338H164.308V25.085H173.14V22.7607H164.274V21.6816H174.418V26.1475H165.603V28.5547H174.767V29.6338H169.969V32.4229H176.128ZM194.207 20.5859V35.3447H192.962V20.5859H194.207ZM181.557 31.2109C184.769 29.3101 186.379 26.6455 186.637 23.5576H182.221V22.4785H187.932C187.932 23.2339 187.865 23.981 187.732 24.7031H189.974V20.9844H191.219V34.5977H189.974V29.4844H187.234V28.4053H189.974V25.7822H187.475C186.761 28.2808 185.143 30.4888 182.354 32.1572L181.557 31.2109ZM209.763 28.0068V29.0859H196.266V28.0068H202.342V25.7324H203.62V28.0068H209.763ZM197.079 25.4834C199.686 25.1265 202.325 23.4829 202.325 21.5156V20.8184H203.637V21.5156C203.637 23.4829 206.293 25.1265 208.899 25.4834L208.368 26.5293C206.135 26.1392 203.911 24.9521 202.989 23.2505C202.06 24.9688 199.843 26.1392 197.577 26.5293L197.079 25.4834ZM197.76 31.5762V30.5303H208.053V35.3447H206.741V31.5762H197.76ZM222.38 20.5859V26.6787H224.854V27.7578H222.38V35.3447H221.085V20.5859H222.38ZM210.875 24.0391V22.96H214.677V20.7686H215.972V22.96H219.657V24.0391H210.875ZM211.722 28.6543C211.713 26.6621 213.241 25.2676 215.341 25.2676C217.424 25.2676 218.943 26.6621 218.96 28.6543C218.943 30.6548 217.424 32.041 215.341 32.041C213.241 32.041 211.713 30.6548 211.722 28.6543ZM212.967 28.6543C212.958 29.999 213.963 30.9453 215.341 30.9287C216.702 30.9453 217.698 29.999 217.715 28.6543C217.698 27.3179 216.702 26.355 215.341 26.3633C213.963 26.355 212.958 27.3179 212.967 28.6543ZM237.853 20.5859V35.3447H236.541V20.5859H237.853ZM225.833 31.5098C229.826 29.6172 231.868 26.7866 232.158 23.2588H226.514V22.1963H233.486C233.47 26.438 231.494 30.1982 226.547 32.5723L225.833 31.5098Z" fill="white"/>
</svg>
