<svg width="28" height="28" viewBox="0 0 28 28" fill="none" xmlns="http://www.w3.org/2000/svg">
<g clip-path="url(#clip0_345_761)">
<path fill-rule="evenodd" clip-rule="evenodd" d="M20.2219 7.07922H7.77745C6.14514 7.07922 4.8219 8.38287 4.8219 9.99101V20.3028C4.8219 21.9109 6.14514 23.2146 7.77745 23.2146H20.2219C21.8542 23.2146 23.1775 21.9109 23.1775 20.3028V9.99101C23.1775 8.38287 21.8542 7.07922 20.2219 7.07922ZM7.77745 4.6272C4.77057 4.6272 2.33301 7.02866 2.33301 9.99101V20.3028C2.33301 23.2652 4.77057 25.6666 7.77745 25.6666H20.2219C23.2288 25.6666 25.6663 23.2652 25.6663 20.3028V9.99101C25.6663 7.02866 23.2288 4.6272 20.2219 4.6272H7.77745Z" fill="#222222"/>
<path d="M7.3125 3.55927C7.3125 2.88216 7.86966 2.33325 8.55694 2.33325C9.24423 2.33325 9.80139 2.88216 9.80139 3.55927V6.57779H7.3125V3.55927Z" fill="#222222"/>
<path d="M18.1982 3.55927C18.1982 2.88216 18.7554 2.33325 19.4427 2.33325C20.13 2.33325 20.6871 2.88216 20.6871 3.55927V6.57779H18.1982V3.55927Z" fill="#222222"/>
<path d="M7.80762 15.4479C7.80762 15.0247 8.15584 14.6816 8.5854 14.6816H9.5139C9.94345 14.6816 10.2917 15.0247 10.2917 15.4479V16.3626C10.2917 16.7858 9.94345 17.1289 9.5139 17.1289H8.5854C8.15584 17.1289 7.80762 16.7858 7.80762 16.3627V15.4479Z" fill="#733EE3"/>
<path d="M7.80762 19.1359C7.80762 18.7127 8.15584 18.3696 8.5854 18.3696H9.5139C9.94345 18.3696 10.2917 18.7127 10.2917 19.1359V20.0506C10.2917 20.4738 9.94345 20.8169 9.5139 20.8169H8.5854C8.15584 20.8169 7.80762 20.4738 7.80762 20.0506V19.1359Z" fill="#733EE3"/>
<path d="M12.7568 15.4479C12.7568 15.0247 13.1051 14.6816 13.5346 14.6816H14.4631C14.8927 14.6816 15.2409 15.0247 15.2409 15.4479V16.3626C15.2409 16.7858 14.8927 17.1289 14.4631 17.1289H13.5346C13.1051 17.1289 12.7568 16.7858 12.7568 16.3627V15.4479Z" fill="#733EE3"/>
<path d="M12.7568 19.1359C12.7568 18.7127 13.1051 18.3696 13.5346 18.3696H14.4631C14.8927 18.3696 15.2409 18.7127 15.2409 19.1359V20.0506C15.2409 20.4738 14.8927 20.8169 14.4631 20.8169H13.5346C13.1051 20.8169 12.7568 20.4738 12.7568 20.0506V19.1359Z" fill="#733EE3"/>
<path d="M17.7061 15.4479C17.7061 15.0247 18.0543 14.6816 18.4838 14.6816H19.4123C19.8419 14.6816 20.1901 15.0247 20.1901 15.4479V16.3626C20.1901 16.7858 19.8419 17.1289 19.4123 17.1289H18.4838C18.0543 17.1289 17.7061 16.7858 17.7061 16.3627V15.4479Z" fill="#733EE3"/>
<path d="M17.7061 19.1359C17.7061 18.7127 18.0543 18.3696 18.4838 18.3696H19.4123C19.8419 18.3696 20.1901 18.7127 20.1901 19.1359V20.0506C20.1901 20.4738 19.8419 20.8169 19.4123 20.8169H18.4838C18.0543 20.8169 17.7061 20.4738 17.7061 20.0506V19.1359Z" fill="#733EE3"/>
<path d="M3.25098 11.1509C3.25098 11.828 3.80813 12.377 4.49542 12.377H23.5039C24.1912 12.377 24.7483 11.828 24.7483 11.1509C24.7483 10.4738 24.1912 9.92493 23.5039 9.92493H4.49542C3.80813 9.92493 3.25098 10.4738 3.25098 11.1509Z" fill="#222222"/>
</g>
<defs>
<clipPath id="clip0_345_761">
<rect width="28" height="28" fill="white"/>
</clipPath>
</defs>
</svg>
