<svg width="328" height="62" viewBox="0 0 328 62" fill="none" xmlns="http://www.w3.org/2000/svg">
<path d="M9.92578 8.04297C9.91211 12.1445 12.6055 16.3828 16.3789 17.9961L14.957 20.0195C12.0723 18.748 9.77539 16.041 8.64062 12.7734C7.50586 16.2734 5.20898 19.2539 2.35156 20.6484L0.847656 18.5977C4.53906 16.8613 7.27344 12.2676 7.30078 8.04297V5.44531H1.69531V3.28516H15.5039V5.44531H9.92578V8.04297ZM18.5938 25.3242V0.824219H21.1914V25.3242H18.5938ZM44.6797 2.05469V3.91406C44.6934 5.82812 44.6934 8.04297 44.0508 10.9961H47.5234V13.1289H25.1016V10.9961H41.4258C42.082 8.13867 42.1094 6.04688 42.1094 4.1875H27.918V2.05469H44.6797ZM27.8359 25.0234V16.2461H44.707V25.0234H27.8359ZM30.3789 22.918H42.1367V18.2969H30.3789V22.918ZM142.379 3.44922V4.95312C142.365 7.01758 142.365 10.1758 141.668 14.5508L139.098 14.3594C139.727 10.4492 139.795 7.5918 139.809 5.55469H129.855V3.44922H142.379ZM128.488 17.9414C130.02 17.9277 131.729 17.9141 133.52 17.873V10.4492H136.09V17.791C138.688 17.6816 141.354 17.5176 143.801 17.2031L143.938 19.1445C138.838 19.9648 133.137 20.0742 128.789 20.0469L128.488 17.9414ZM145.195 25.3242V0.824219H147.82V10.9414H151.566V13.1562H147.82V25.3242H145.195ZM179.02 0.824219V7.16797H182.574V9.38281H179.02V15.5898H176.422V0.824219H179.02ZM159.797 5.39062V3.3125H165.812V0.632812H168.41V3.3125H174.398V5.39062H159.797ZM161.137 10.832C161.123 8.2207 163.529 6.45703 167.098 6.45703C170.639 6.45703 173.031 8.2207 173.031 10.832C173.031 13.4844 170.625 15.2207 167.098 15.2344C163.529 15.2207 161.123 13.4844 161.137 10.832ZM163.379 25.0234V16.875H179.02V25.0234H163.379ZM163.652 10.832C163.625 12.3496 165.02 13.252 167.098 13.2656C169.176 13.252 170.57 12.3496 170.598 10.832C170.57 9.36914 169.176 8.43945 167.098 8.45312C165.02 8.43945 163.625 9.36914 163.652 10.832ZM165.922 22.918H176.449V18.9258H165.922V22.918ZM190.039 3.72266C190.012 9.20508 189.328 14.8926 185.91 19.6914L183.887 18.543C186.744 14.7148 187.605 10.4629 187.783 5.85547H184.461V3.72266H190.039ZM189.383 19.9922C192.555 15.7266 193.143 10.5996 193.238 5.85547H190.777V3.72266H195.48C195.48 5.78711 195.426 8.0293 195.166 10.3125H198.051V1.45312H200.512V24.1211H198.051V12.418H194.865C194.318 15.4668 193.307 18.4883 191.406 21.168L189.383 19.9922ZM202.672 25.3242V0.824219H205.16V25.3242H202.672ZM9.40625 43.0586C9.37891 47.3926 11.9082 51.8359 15.5586 53.6133L13.9453 55.6914C11.2793 54.2969 9.21484 51.5625 8.13477 48.2949C7.04102 51.7676 4.89453 54.707 2.10547 56.1562L0.492188 54.0508C4.25195 52.2461 6.79492 47.543 6.80859 43.0586V38.875H9.40625V43.0586ZM17.3906 61.3242V36.8242H19.9883V46.5859H23.9258V48.8008H19.9883V61.3242H17.3906ZM34.1797 41.9375C34.1797 45.1094 36.5176 48.0898 40.3047 49.293L38.9648 51.3164C36.1484 50.3867 34.0293 48.459 32.9082 46.0117C31.8145 48.6777 29.627 50.7832 26.7148 51.8086L25.375 49.7578C29.1895 48.459 31.541 45.2871 31.5547 41.9375V40.8711H26.0586V38.7656H39.5664V40.8711H34.1797V41.9375ZM29.3945 60.8047V53.0391H32.0195V58.6992H46.1562V60.8047H29.3945ZM42.8203 54.7344V36.8516H45.418V54.7344H42.8203ZM60.457 38.3008C65.5977 38.3008 69.5078 41.0215 69.5078 45.1367C69.5078 49.2793 65.5977 51.9863 60.457 51.9727C55.3301 51.9863 51.4199 49.2793 51.4336 45.1367C51.4199 41.0215 55.3301 38.3008 60.457 38.3008ZM49.3008 58.1523V55.9922H71.7227V58.1523H49.3008ZM53.9219 45.1367C53.9082 47.9941 56.6973 49.8398 60.457 49.8398C64.2031 49.8398 66.9785 47.9941 66.9922 45.1367C66.9785 42.293 64.2031 40.3926 60.457 40.4062C56.6973 40.3926 53.9082 42.293 53.9219 45.1367ZM95.9219 56.2109V58.3984H73.5V56.2109H83.3711V51.918H76.2344V44.125H90.6172V40.6797H76.1797V38.5469H93.1875V46.2031H78.8047V49.7852H93.7617V51.918H85.9414V56.2109H95.9219ZM199.527 48.0625V50.0586H177.105V48.0625H199.527ZM179.758 53.6406V51.7812H196.766V57.168H182.383V59.1914H197.531V61.0234H179.785V55.4453H194.195V53.6406H179.758ZM179.922 39.2852V37.4531H196.711V42.7578H182.547V44.6172H197.121V46.4492H179.977V41.0352H194.113V39.2852H179.922ZM227.418 36.8242V42.6484H230.973V44.8086H227.418V50.6602H224.82V36.8242H227.418ZM209.262 49.4023V38.4375H220.145V40.543H211.832V47.2969C216.604 47.2969 219.283 47.1055 222.359 46.5039L222.66 48.582C219.352 49.2793 216.453 49.4023 211.203 49.4023H209.262ZM211.777 60.9961V51.8633H227.418V60.9961H211.777ZM214.32 58.918H224.848V53.9414H214.32V58.918ZM238.93 38.6562C242.594 38.6699 245.205 42.0059 245.219 47.2422C245.205 52.5332 242.594 55.8691 238.93 55.8555C235.266 55.8691 232.654 52.5332 232.668 47.2422C232.654 42.0059 235.266 38.6699 238.93 38.6562ZM235.156 47.2422C235.143 51.1387 236.701 53.5312 238.93 53.5312C241.199 53.5312 242.73 51.1387 242.73 47.2422C242.73 43.4004 241.199 40.9941 238.93 40.9805C236.701 40.9941 235.143 43.4004 235.156 47.2422ZM248.855 61.3242V36.8242H251.453V46.4219H255.391V48.6094H251.453V61.3242H248.855ZM278.988 56.1289V58.2891H256.566V56.1289H266.438V51.0977H259.137V38.4922H261.734V42.7031H273.766V38.4922H276.336V51.0977H269.008V56.1289H278.988ZM261.734 48.9922H273.766V44.8086H261.734V48.9922ZM288.23 43.5234C288.23 47.4336 289.871 51.6035 293.152 53.6133L291.703 55.6094C289.406 54.2285 287.861 51.7812 287.014 48.9512C286.125 52.0547 284.43 54.707 282.051 56.1562L280.438 54.2148C283.896 52.1367 285.729 47.8027 285.715 43.6328V39.0664H288.23V43.5234ZM290.5 47.5977V45.4375H294.301V37.2891H296.762V60.1211H294.301V47.5977H290.5ZM299.359 61.3242V36.8242H301.848V61.3242H299.359ZM327.387 56.1016V58.2617H304.965V56.1016H310.324V49.7031C308.314 48.5957 307.084 46.8457 307.098 44.6445C307.084 40.7891 310.871 38.2598 316.121 38.2461C321.385 38.2598 325.172 40.7891 325.172 44.6445C325.172 46.8047 323.996 48.541 322.027 49.6484V56.1016H327.387ZM309.613 44.6445C309.613 47.2695 312.279 48.9785 316.121 48.9922C319.936 48.9785 322.643 47.2695 322.656 44.6445C322.643 42.0059 319.936 40.3242 316.121 40.3242C312.279 40.3242 309.613 42.0059 309.613 44.6445ZM312.895 56.1016H319.402V50.6602C318.404 50.8926 317.297 51.0156 316.121 51.0156C314.973 51.0156 313.879 50.8926 312.895 50.6602V56.1016Z" fill="#222222"/>
<path d="M77.5469 0.632812V25.5156H74.1836V0.632812H77.5469ZM56.7383 19.9648V3.44922H66.2539V6.23828H60.1562V17.0801C62.8086 17.0527 64.832 16.9023 67.1562 16.4375L67.4297 19.2812C64.6133 19.8418 62.1113 19.9648 58.4609 19.9648H56.7383ZM64.5586 12.5547V9.71094H69.0156V1.07031H72.2695V24.3945H69.0156V12.5547H64.5586ZM101.008 0.632812V25.5703H97.4805V0.632812H101.008ZM80.9102 11.2422C80.8965 5.81445 83.6719 2.38281 87.5 2.38281C91.2461 2.38281 94.0352 5.81445 94.0352 11.2422C94.0352 16.7109 91.2461 20.1289 87.5 20.1289C83.6719 20.1289 80.8965 16.7109 80.9102 11.2422ZM84.2734 11.2422C84.2598 14.9473 85.5586 16.9707 87.5 16.957C89.3867 16.9707 90.6582 14.9473 90.6719 11.2422C90.6582 7.55078 89.3867 5.52734 87.5 5.52734C85.5586 5.52734 84.2598 7.55078 84.2734 11.2422ZM125.453 0.660156V19.4453H121.953V17.4766H117.195V15.0977H121.953V0.660156H125.453ZM104.289 11.6797C108.842 11.6523 114.994 11.584 120.258 10.9414L120.449 13.4297C118.48 13.7578 116.443 13.9902 114.434 14.1406V18.8711H110.934V22.2891H126V25.0781H107.461V17.6406H110.934V14.3457C108.705 14.4277 106.586 14.4414 104.699 14.4414L104.289 11.6797ZM106.121 5.96484C106.121 3.3125 108.678 1.49414 112.383 1.50781C115.992 1.49414 118.576 3.3125 118.59 5.96484C118.576 8.63086 115.992 10.3535 112.383 10.3398C108.678 10.3535 106.121 8.63086 106.121 5.96484ZM109.43 5.96484C109.416 7.16797 110.605 7.83789 112.383 7.82422C114.051 7.83789 115.254 7.16797 115.281 5.96484C115.254 4.73438 114.051 4.05078 112.383 4.05078C110.605 4.05078 109.416 4.73438 109.43 5.96484ZM125.207 36.6328V61.5703H121.68V36.6328H125.207ZM105.109 47.2422C105.096 41.8145 107.871 38.3828 111.699 38.3828C115.445 38.3828 118.234 41.8145 118.234 47.2422C118.234 52.7109 115.445 56.1289 111.699 56.1289C107.871 56.1289 105.096 52.7109 105.109 47.2422ZM108.473 47.2422C108.459 50.9473 109.758 52.9707 111.699 52.957C113.586 52.9707 114.857 50.9473 114.871 47.2422C114.857 43.5508 113.586 41.5273 111.699 41.5273C109.758 41.5273 108.459 43.5508 108.473 47.2422ZM135.27 38.3828C139.07 38.3828 141.818 41.8145 141.832 47.2422C141.818 52.7109 139.07 56.1289 135.27 56.1289C131.455 56.1289 128.693 52.7109 128.707 47.2422C128.693 41.8145 131.455 38.3828 135.27 38.3828ZM132.07 47.2422C132.07 50.9473 133.369 52.9707 135.27 52.957C137.211 52.9707 138.482 50.9473 138.496 47.2422C138.482 43.5508 137.211 41.5273 135.27 41.5273C133.369 41.5273 132.07 43.5508 132.07 47.2422ZM144.703 61.5156V36.6328H148.203V42.4023H151.73V45.3281H148.203V49.7578H151.73V52.6016H148.203V61.5156H144.703ZM173.688 36.6328V61.5156H170.16V36.6328H173.688ZM152.852 54.4609C159.277 51.4258 162.107 47.4883 162.668 41.9648H154.191V39.2305H166.223C166.209 46.7773 163.57 53.0527 154.684 57.25L152.852 54.4609Z" fill="#733EE3"/>
</svg>
