<svg width="118" height="36" viewBox="0 0 118 36" fill="none" xmlns="http://www.w3.org/2000/svg">
<path d="M13.6426 36H0.703125V0.648438H13.6426C24.4336 0.648438 31.0742 7.26465 31.0742 18.3242C31.0742 29.3594 24.4336 36 13.6426 36ZM9.00391 28.8711H13.3496C19.4043 28.8955 22.7246 25.9902 22.7246 18.3242C22.7246 10.6338 19.4043 7.75293 13.252 7.72852H9.00391V28.8711ZM40.7305 36H31.7461L43.7578 0.648438H54.793L66.7559 36H57.8203L55.4277 28.4316H43.123L40.7305 36ZM45.125 22.084H53.4258L49.4219 9.38867H49.1289L45.125 22.084ZM64.5469 0.648438H73.873L81.4902 15.4922H81.7832L89.4004 0.648438H98.6777L85.7871 24.0371V36H77.4863V24.0371L64.5469 0.648438ZM117.807 0.648438V36H109.457V8.46094H109.262L101.303 13.3438V6.11719L110.043 0.648438H117.807Z" fill="#733EE3"/>
</svg>
