<svg width="48" height="48" viewBox="0 0 48 48" fill="none" xmlns="http://www.w3.org/2000/svg">
<circle cx="24" cy="24" r="24" fill="black" fill-opacity="0.2"/>
<path d="M35.7363 28.8605C34.955 31.3188 33.1031 33.4138 30.5467 34.7316C27.9902 36.0493 24.9152 36.4939 21.9291 35.9776C18.9431 35.4612 16.2633 34.0214 14.4193 31.9428C12.5753 29.8641 11.7012 27.2977 11.9698 24.7507L13.6563 24.9176C13.4253 27.1085 14.1772 29.3161 15.7634 31.1042C17.3496 32.8922 19.6548 34.1307 22.2234 34.5749C24.792 35.0191 27.4371 34.6366 29.6362 33.5031C31.8352 32.3696 33.4282 30.5674 34.1003 28.4528L35.7363 28.8605Z" fill="white"/>
<path d="M13.1335 21.1213L15.3301 25.0744L10.2444 24.6005L13.1335 21.1213Z" fill="white"/>
<path d="M12.2909 19.1394C13.0722 16.6811 14.9241 14.5861 17.4805 13.2684C20.037 11.9506 23.112 11.506 26.098 12.0224C29.084 12.5387 31.7638 13.9785 33.6078 16.0572C35.4518 18.1359 36.3259 20.7022 36.0573 23.2492L34.3708 23.0824C34.6018 20.8915 33.8499 18.6839 32.2637 16.8958C30.6775 15.1077 28.3724 13.8692 25.8038 13.425C23.2352 12.9809 20.5901 13.3633 18.391 14.4969C16.192 15.6304 14.599 17.4325 13.9269 19.5471L12.2909 19.1394Z" fill="white"/>
<path d="M34.8205 26.8453L32.663 22.8708L37.7437 23.3947L34.8205 26.8453Z" fill="white"/>
</svg>
