<svg width="28" height="28" viewBox="0 0 28 28" fill="none" xmlns="http://www.w3.org/2000/svg">
<path d="M21.5793 20.9691C22.2713 20.9679 22.7529 20.2811 22.5183 19.6301L21.6596 17.2475C21.6204 17.1388 21.6004 17.0241 21.6004 16.9085L21.6004 12.3427C21.6004 10.0258 21.6004 7.60051 19.9418 5.71042C19.1818 4.85453 18.2386 4.16887 17.1777 3.70095C16.1167 3.23304 14.9633 2.99407 13.7974 3.00062H13.2026C12.8515 2.99957 12.5007 3.02221 12.1529 3.06836C10.793 3.22391 9.49948 3.72343 8.40242 4.51666C7.30537 5.30989 6.44348 6.36884 5.9035 7.58696C5.27367 9.0909 5.34365 10.7574 5.34365 12.3291C5.34365 14.0663 5.39607 15.2184 5.39946 16.9423C5.39969 17.0579 5.37959 17.1727 5.3404 17.2814L4.48353 19.6589C4.24838 20.3113 4.73256 20.9992 5.42607 20.9979L21.5793 20.9691Z" stroke="#222222" stroke-width="2.3" stroke-miterlimit="10" stroke-linejoin="round"/>
<path d="M17 21.0005C16.9652 22.0753 16.5813 23.0923 15.9287 23.8381C15.2761 24.5839 14.4057 25.0005 13.5 25.0005C12.5943 25.0005 11.7239 24.5839 11.0713 23.8381C10.4187 23.0923 10.0348 22.0753 10 21.0005" stroke="#222222" stroke-width="2.3" stroke-miterlimit="10"/>
</svg>
