<svg width="24" height="24" viewBox="0 0 24 24" fill="none" xmlns="http://www.w3.org/2000/svg">
<path fill-rule="evenodd" clip-rule="evenodd" d="M17.311 3.04701H6.68905C4.67774 3.04701 3.04725 4.67749 3.04725 6.6888V17.3107C3.04725 19.322 4.67774 20.9525 6.68905 20.9525H17.311C19.3223 20.9525 20.9528 19.322 20.9528 17.3107V6.6888C20.9528 4.67749 19.3223 3.04701 17.311 3.04701ZM6.68905 0.619141C3.33686 0.619141 0.619385 3.33662 0.619385 6.6888V17.3107C0.619385 20.6629 3.33686 23.3804 6.68905 23.3804H17.311C20.6631 23.3804 23.3806 20.6629 23.3806 17.3107V6.6888C23.3806 3.33662 20.6631 0.619141 17.311 0.619141H6.68905Z" fill="#9E9E9E"/>
<path d="M1.5144 17.8272C1.5144 17.1568 2.0579 16.6133 2.72834 16.6133H21.2708C21.9412 16.6133 22.4847 17.1568 22.4847 17.8272C22.4847 18.4976 21.9412 19.0411 21.2708 19.0411H2.72834C2.0579 19.0411 1.5144 18.4976 1.5144 17.8272Z" fill="#9E9E9E"/>
<path d="M5.19092 12.7158C5.19092 13.3862 5.73441 13.9297 6.40485 13.9297H10.9694C11.6398 13.9297 12.1833 13.3862 12.1833 12.7158C12.1833 12.0453 11.6398 11.5018 10.9694 11.5018H6.40485C5.73441 11.5018 5.19092 12.0453 5.19092 12.7158Z" fill="#9E9E9E"/>
<path d="M5.19092 8.00677C5.19092 8.67721 5.73441 9.2207 6.40485 9.2207H15.1779C15.8484 9.2207 16.3919 8.67721 16.3919 8.00677C16.3919 7.33633 15.8484 6.79284 15.1779 6.79284H6.40485C5.73441 6.79284 5.19092 7.33633 5.19092 8.00677Z" fill="#9E9E9E"/>
</svg>
