<svg width="52" height="48" viewBox="0 0 52 48" fill="none" xmlns="http://www.w3.org/2000/svg">
<g clip-path="url(#clip0_1126_4909)">
<path fill-rule="evenodd" clip-rule="evenodd" d="M31.311 5.04701H20.689C18.6777 5.04701 17.0472 6.67749 17.0472 8.6888V19.3107C17.0472 21.322 18.6777 22.9525 20.689 22.9525H31.311C33.3223 22.9525 34.9528 21.322 34.9528 19.3107V8.6888C34.9528 6.67749 33.3223 5.04701 31.311 5.04701ZM20.689 2.61914C17.3369 2.61914 14.6194 5.33662 14.6194 8.6888V19.3107C14.6194 22.6629 17.3369 25.3804 20.689 25.3804H31.311C34.6631 25.3804 37.3806 22.6629 37.3806 19.3107V8.6888C37.3806 5.33662 34.6631 2.61914 31.311 2.61914H20.689Z" fill="#9E9E9E"/>
<path d="M15.5144 19.8272C15.5144 19.1568 16.0579 18.6133 16.7283 18.6133H35.2708C35.9412 18.6133 36.4847 19.1568 36.4847 19.8272C36.4847 20.4976 35.9412 21.0411 35.2708 21.0411H16.7283C16.0579 21.0411 15.5144 20.4976 15.5144 19.8272Z" fill="#9E9E9E"/>
<path d="M19.1909 14.7158C19.1909 15.3862 19.7344 15.9297 20.4048 15.9297H24.9694C25.6398 15.9297 26.1833 15.3862 26.1833 14.7158C26.1833 14.0453 25.6398 13.5018 24.9694 13.5018H20.4049C19.7344 13.5018 19.1909 14.0453 19.1909 14.7158Z" fill="#9E9E9E"/>
<path d="M19.1909 10.0068C19.1909 10.6772 19.7344 11.2207 20.4048 11.2207H29.1779C29.8484 11.2207 30.3919 10.6772 30.3919 10.0068C30.3919 9.33633 29.8484 8.79284 29.1779 8.79284H20.4048C19.7344 8.79284 19.1909 9.33633 19.1909 10.0068Z" fill="#9E9E9E"/>
</g>
<path d="M10.9766 33.6211C10.9648 36.627 9.89844 39.3809 6.21875 41.2266L5.69141 40.5234C7.60742 39.5625 8.79102 38.3613 9.44141 36.9551L5.89062 37.2891L5.72656 36.4922L9.72266 36.2285C9.91602 35.6426 10.0215 35.0273 10.0684 34.3828H6.25391V33.6211H10.9766ZM10.9414 37.4883V36.7266H13.3906V32.5312H14.3047V42.9492H13.3906V37.4883H10.9414ZM25.5781 38.5664V39.3281H23.1406V43.0312H22.2266V39.3281H19.4023V43.0312H18.4883V39.3281H16.0391V38.5664H25.5781ZM17.2695 37.1602V33.1055H24.3359V37.1602H17.2695ZM18.1719 36.4219H23.4219V33.8555H18.1719V36.4219ZM35.0117 32.5312V42.9492H34.0977V32.5312H35.0117ZM27.1016 40.2656V33.5625H28.0039V39.4688C29.5977 39.457 31.2383 39.334 32.9844 38.9648L33.1133 39.75C31.2617 40.1367 29.6152 40.2656 27.9453 40.2656H27.1016ZM42.5352 33.4805V34.2539H38.375V36.4102H42.1602V37.1602H38.375V39.6797C40.3203 39.6797 41.6562 39.6094 43.25 39.3398L43.3438 40.1016C41.6973 40.377 40.2969 40.4355 38.293 40.4414H37.4609V33.4805H42.5352ZM44.4805 42.9492V32.5312H45.4062V42.9492H44.4805Z" fill="#9E9E9E"/>
<defs>
<clipPath id="clip0_1126_4909">
<rect width="28" height="28" fill="white" transform="translate(12)"/>
</clipPath>
</defs>
</svg>
