<svg width="28" height="28" viewBox="0 0 28 28" fill="none" xmlns="http://www.w3.org/2000/svg">
<g clip-path="url(#clip0_1324_5174)">
<path fill-rule="evenodd" clip-rule="evenodd" d="M20.2221 7.07898H7.7777C6.14539 7.07898 4.82214 8.38263 4.82214 9.99076V20.3026C4.82214 21.9107 6.14539 23.2143 7.7777 23.2143H20.2221C21.8544 23.2143 23.1777 21.9107 23.1777 20.3026V9.99076C23.1777 8.38263 21.8544 7.07898 20.2221 7.07898ZM7.7777 4.62695C4.77081 4.62695 2.33325 7.02841 2.33325 9.99076V20.3026C2.33325 23.2649 4.77081 25.6664 7.7777 25.6664H20.2221C23.229 25.6664 25.6666 23.2649 25.6666 20.3026V9.99076C25.6666 7.02841 23.229 4.62695 20.2221 4.62695H7.7777Z" fill="#9E9E9E"/>
<path d="M7.31274 3.55902C7.31274 2.88191 7.8699 2.33301 8.55719 2.33301C9.24448 2.33301 9.80163 2.88191 9.80163 3.55902V6.57754H7.31274V3.55902Z" fill="#9E9E9E"/>
<path d="M18.1987 3.55902C18.1987 2.88191 18.7559 2.33301 19.4432 2.33301C20.1305 2.33301 20.6876 2.88191 20.6876 3.55902V6.57754H18.1987V3.55902Z" fill="#9E9E9E"/>
<path d="M7.80811 15.4479C7.80811 15.0247 8.15633 14.6816 8.58588 14.6816H9.51438C9.94394 14.6816 10.2922 15.0247 10.2922 15.4479V16.3626C10.2922 16.7858 9.94394 17.1289 9.51438 17.1289H8.58588C8.15633 17.1289 7.80811 16.7858 7.80811 16.3627V15.4479Z" fill="#9E9E9E"/>
<path d="M7.80811 19.1354C7.80811 18.7122 8.15633 18.3691 8.58588 18.3691H9.51438C9.94394 18.3691 10.2922 18.7122 10.2922 19.1354V20.0501C10.2922 20.4733 9.94394 20.8164 9.51438 20.8164H8.58588C8.15633 20.8164 7.80811 20.4733 7.80811 20.0501V19.1354Z" fill="#9E9E9E"/>
<path d="M12.7573 15.4479C12.7573 15.0247 13.1055 14.6816 13.5351 14.6816H14.4636C14.8932 14.6816 15.2414 15.0247 15.2414 15.4479V16.3626C15.2414 16.7858 14.8932 17.1289 14.4636 17.1289H13.5351C13.1055 17.1289 12.7573 16.7858 12.7573 16.3627V15.4479Z" fill="#9E9E9E"/>
<path d="M12.7573 19.1354C12.7573 18.7122 13.1055 18.3691 13.5351 18.3691H14.4636C14.8932 18.3691 15.2414 18.7122 15.2414 19.1354V20.0501C15.2414 20.4733 14.8932 20.8164 14.4636 20.8164H13.5351C13.1055 20.8164 12.7573 20.4733 12.7573 20.0501V19.1354Z" fill="#9E9E9E"/>
<path d="M17.7065 15.4479C17.7065 15.0247 18.0548 14.6816 18.4843 14.6816H19.4128C19.8424 14.6816 20.1906 15.0247 20.1906 15.4479V16.3626C20.1906 16.7858 19.8424 17.1289 19.4128 17.1289H18.4843C18.0548 17.1289 17.7065 16.7858 17.7065 16.3627V15.4479Z" fill="#9E9E9E"/>
<path d="M17.7065 19.1354C17.7065 18.7122 18.0548 18.3691 18.4843 18.3691H19.4128C19.8424 18.3691 20.1906 18.7122 20.1906 19.1354V20.0501C20.1906 20.4733 19.8424 20.8164 19.4128 20.8164H18.4843C18.0548 20.8164 17.7065 20.4733 17.7065 20.0501V19.1354Z" fill="#9E9E9E"/>
<path d="M3.25073 11.1509C3.25073 11.828 3.80789 12.377 4.49518 12.377H23.5037C24.1909 12.377 24.7481 11.828 24.7481 11.1509C24.7481 10.4738 24.1909 9.92493 23.5037 9.92493H4.49518C3.80789 9.92493 3.25073 10.4738 3.25073 11.1509Z" fill="#9E9E9E"/>
</g>
<defs>
<clipPath id="clip0_1324_5174">
<rect width="28" height="28" fill="white"/>
</clipPath>
</defs>
</svg>
