<svg width="52" height="48" viewBox="0 0 52 48" fill="none" xmlns="http://www.w3.org/2000/svg">
<rect x="15.775" y="7.58945" width="20.45" height="16.6352" rx="3.35" stroke="#9E9E9E" stroke-width="2.3"/>
<circle cx="26" cy="15.9082" r="3.85" stroke="#9E9E9E" stroke-width="2.3"/>
<path d="M21.2126 4.06549C21.238 3.95111 21.3394 3.86973 21.4566 3.86973H30.5439C30.661 3.86973 30.7625 3.95111 30.7879 4.06549L31.5666 7.56973H20.4339L21.2126 4.06549Z" stroke="#9E9E9E" stroke-width="2.3"/>
<path d="M16.2676 33.6211C16.2617 36.627 15.2363 39.3809 11.4863 41.2266L10.9707 40.5234C12.9277 39.5684 14.1055 38.3613 14.7383 36.9609L11.1699 37.3008L11.0176 36.4922L15.0195 36.2227C15.207 35.6367 15.3125 35.0215 15.3535 34.3828H11.5449V33.6211H16.2676ZM18.0137 42.9492V32.5312H18.9277V36.7734H20.6152V37.5469H18.9277V42.9492H18.0137ZM25.6074 33.75V36.4688H27.1895V32.7539H28.0684V42.4219H27.1895V37.2305H25.6074V40.1484H21.623V33.75H25.6074ZM22.4902 39.4102H24.7402V34.4883H22.4902V39.4102ZM29.2754 42.9492V32.5312H30.166V42.9492H29.2754ZM39.6699 32.5312V36.6797H41.416V37.4531H39.6699V42.9727H38.7559V32.5312H39.6699ZM32.0176 34.2656V33.5039H36.752V37.2305H32.9551V39.668C34.8887 39.6738 36.2422 39.5977 37.8184 39.3047L37.9121 40.0664C36.2715 40.3652 34.8828 40.4414 32.873 40.4531H32.041V36.4688H35.8379V34.2656H32.0176Z" fill="#9E9E9E"/>
</svg>
