<svg width="358" height="56" viewBox="0 0 358 56" fill="none" xmlns="http://www.w3.org/2000/svg">
<rect width="358" height="56" rx="4" fill="#FEE500"/>
<g clip-path="url(#clip0_224_1357)">
<path fill-rule="evenodd" clip-rule="evenodd" d="M32.0001 16.8C25.3723 16.8 20 20.9506 20 26.0697C20 29.2534 22.0779 32.06 25.2421 33.7293L23.9107 38.5927C23.7931 39.0224 24.2846 39.3649 24.662 39.1159L30.4978 35.2643C30.9903 35.3118 31.4908 35.3395 32.0001 35.3395C38.6274 35.3395 44 31.1891 44 26.0697C44 20.9506 38.6274 16.8 32.0001 16.8Z" fill="black"/>
</g>
<path d="M126.348 22.1299C126.34 26.3882 124.887 30.2896 119.575 32.9043L118.844 31.9082C121.617 30.5552 123.285 28.8452 124.182 26.8613L119.126 27.3428L118.911 26.1973L124.58 25.8154C124.846 24.9854 124.995 24.1138 125.053 23.209H119.658V22.1299H126.348ZM128.822 35.3447V20.5859H130.117V26.5957H132.507V27.6914H130.117V35.3447H128.822ZM141.041 22.1299C141.032 26.3882 139.58 30.2896 134.267 32.9043L133.537 31.9082C136.309 30.5552 137.978 28.8452 138.874 26.8613L133.819 27.3428L133.603 26.1973L139.272 25.8154C139.538 24.9854 139.688 24.1138 139.746 23.209H134.35V22.1299H141.041ZM143.514 35.3447V20.5859H144.809V26.5957H147.2V27.6914H144.809V35.3447H143.514ZM154.803 21.5488C157.941 21.5654 160.199 23.0928 160.199 25.417C160.199 27.6167 158.24 29.0693 155.434 29.2603V32.3564H161.593V33.4521H148.08V32.3564H154.156V29.2603C151.367 29.061 149.408 27.6084 149.408 25.417C149.408 23.0928 151.674 21.5654 154.803 21.5488ZM150.669 25.417C150.661 27.1187 152.413 28.2227 154.803 28.2393C157.194 28.2227 158.937 27.1187 158.937 25.417C158.937 23.7485 157.194 22.6196 154.803 22.6279C152.413 22.6196 150.661 23.7485 150.669 25.417ZM176.286 32.4229V33.5186H162.772V32.4229H168.848V29.6338H164.465V25.085H173.297V22.7607H164.432V21.6816H174.576V26.1475H165.76V28.5547H174.924V29.6338H170.126V32.4229H176.286ZM194.365 20.5859V35.3447H193.12V20.5859H194.365ZM181.714 31.2109C184.927 29.3101 186.537 26.6455 186.794 23.5576H182.378V22.4785H188.089C188.089 23.2339 188.023 23.981 187.89 24.7031H190.131V20.9844H191.376V34.5977H190.131V29.4844H187.392V28.4053H190.131V25.7822H187.633C186.919 28.2808 185.3 30.4888 182.511 32.1572L181.714 31.2109ZM209.92 28.0068V29.0859H196.423V28.0068H202.5V25.7324H203.778V28.0068H209.92ZM197.237 25.4834C199.843 25.1265 202.483 23.4829 202.483 21.5156V20.8184H203.794V21.5156C203.794 23.4829 206.451 25.1265 209.057 25.4834L208.526 26.5293C206.293 26.1392 204.068 24.9521 203.147 23.2505C202.217 24.9688 200.001 26.1392 197.735 26.5293L197.237 25.4834ZM197.917 31.5762V30.5303H208.21V35.3447H206.899V31.5762H197.917ZM222.538 20.5859V26.6787H225.011V27.7578H222.538V35.3447H221.243V20.5859H222.538ZM211.033 24.0391V22.96H214.834V20.7686H216.129V22.96H219.815V24.0391H211.033ZM211.879 28.6543C211.871 26.6621 213.398 25.2676 215.499 25.2676C217.582 25.2676 219.101 26.6621 219.118 28.6543C219.101 30.6548 217.582 32.041 215.499 32.041C213.398 32.041 211.871 30.6548 211.879 28.6543ZM213.125 28.6543C213.116 29.999 214.121 30.9453 215.499 30.9287C216.86 30.9453 217.856 29.999 217.873 28.6543C217.856 27.3179 216.86 26.355 215.499 26.3633C214.121 26.355 213.116 27.3179 213.125 28.6543ZM238.01 20.5859V35.3447H236.699V20.5859H238.01ZM225.991 31.5098C229.983 29.6172 232.025 26.7866 232.316 23.2588H226.671V22.1963H233.644C233.627 26.438 231.652 30.1982 226.705 32.5723L225.991 31.5098Z" fill="#191919"/>
<defs>
<clipPath id="clip0_224_1357">
<rect width="24" height="24" fill="white" transform="translate(20 16)"/>
</clipPath>
</defs>
</svg>
