<svg width="20" height="20" viewBox="0 0 20 20" fill="none" xmlns="http://www.w3.org/2000/svg">
<path fill-rule="evenodd" clip-rule="evenodd" d="M14.9107 6.24247H5.08929C4.22141 6.24247 3.51786 6.94602 3.51786 7.81389V14.9105C3.51786 15.7784 4.22141 16.4819 5.08929 16.4819H14.9107C15.7786 16.4819 16.4821 15.7784 16.4821 14.9105V7.81389C16.4821 6.94602 15.7786 6.24247 14.9107 6.24247ZM5.08929 4.59961C3.31408 4.59961 1.875 6.03869 1.875 7.81389V14.9105C1.875 16.6857 3.31408 18.1248 5.08929 18.1248H14.9107C16.6859 18.1248 18.125 16.6857 18.125 14.9105V7.81389C18.125 6.03869 16.6859 4.59961 14.9107 4.59961H5.08929Z" fill="#9E9E9E"/>
<path fill-rule="evenodd" clip-rule="evenodd" d="M9.9999 13.293C11.065 13.293 11.9285 12.4295 11.9285 11.3644C11.9285 10.2993 11.065 9.43583 9.9999 9.43583C8.93477 9.43583 8.07132 10.2993 8.07132 11.3644C8.07132 12.4295 8.93477 13.293 9.9999 13.293ZM9.9999 14.9358C11.9723 14.9358 13.5713 13.3368 13.5713 11.3644C13.5713 9.39195 11.9723 7.79297 9.9999 7.79297C8.02745 7.79297 6.42847 9.39195 6.42847 11.3644C6.42847 13.3368 8.02745 14.9358 9.9999 14.9358Z" fill="#9E9E9E"/>
<path fill-rule="evenodd" clip-rule="evenodd" d="M7.2704 3.58622L7.04817 4.58622H12.9521L12.7299 3.58622H7.2704ZM6.75471 1.94336C6.28601 1.94336 5.8802 2.26889 5.77853 2.72643L5.19332 5.35984C5.0942 5.80592 5.43364 6.22907 5.8906 6.22907H14.1097C14.5667 6.22907 14.9061 5.80592 14.807 5.35984L14.2218 2.72643C14.1201 2.26889 13.7143 1.94336 13.2456 1.94336H6.75471Z" fill="#9E9E9E"/>
</svg>
